<svg width="86" height="513" viewBox="0 0 86 513" fill="none" xmlns="http://www.w3.org/2000/svg">
<path d="M0 490.397C0 484.168 2.176 478.877 6.528 474.525C10.88 470.173 16.1707 467.997 22.4 467.997H85.376V472.221H44.672V508.701H85.376V512.797H22.4C16.1707 512.797 10.88 510.621 6.528 506.269C2.176 501.917 0 496.626 0 490.397ZM22.4 472.221C17.3653 472.221 13.056 473.97 9.472 477.469C5.888 481.053 4.096 485.362 4.096 490.397C4.096 495.432 5.888 499.741 9.472 503.325C13.056 506.909 17.3653 508.701 22.4 508.701H40.704V472.221H22.4ZM42.752 414.306C44.544 410.381 47.1893 407.223 50.688 404.834C54.4427 402.445 58.5387 401.25 62.976 401.25C69.12 401.25 74.368 403.426 78.72 407.778C83.1573 412.13 85.376 417.378 85.376 423.522V445.922H0L0 423.522C0 417.378 2.176 412.13 6.528 407.778C10.9653 403.426 16.256 401.25 22.4 401.25C26.8373 401.25 30.9333 402.445 34.688 404.834C38.272 407.223 40.96 410.381 42.752 414.306ZM40.704 441.826V423.522C40.704 418.487 38.912 414.178 35.328 410.594C31.744 407.01 27.4347 405.218 22.4 405.218C17.3653 405.218 13.056 407.01 9.472 410.594C5.888 414.178 4.096 418.487 4.096 423.522L4.096 441.826H40.704ZM81.28 423.522C81.28 418.487 79.488 414.178 75.904 410.594C72.32 407.01 68.0107 405.218 62.976 405.218C57.9413 405.218 53.632 407.01 50.048 410.594C46.464 414.178 44.672 418.487 44.672 423.522V441.826H81.28V423.522ZM0 356.647C0 350.503 2.176 345.255 6.528 340.903C10.9653 336.551 16.256 334.375 22.4 334.375H62.976C69.12 334.375 74.368 336.551 78.72 340.903C83.1573 345.255 85.376 350.503 85.376 356.647C85.376 362.791 83.1573 368.039 78.72 372.391C74.368 376.828 69.12 379.047 62.976 379.047H22.4C16.256 379.047 10.9653 376.828 6.528 372.391C2.176 368.039 0 362.791 0 356.647ZM22.4 338.343C17.3653 338.343 13.056 340.135 9.472 343.719C5.888 347.303 4.096 351.612 4.096 356.647C4.096 361.682 5.888 365.991 9.472 369.575C13.056 373.159 17.3653 374.951 22.4 374.951H62.976C68.0107 374.951 72.32 373.159 75.904 369.575C79.488 365.991 81.28 361.682 81.28 356.647C81.28 351.612 79.488 347.303 75.904 343.719C72.32 340.135 68.0107 338.343 62.976 338.343H22.4ZM0 267.5H62.976C69.12 267.5 74.368 269.676 78.72 274.028C83.1573 278.38 85.376 283.628 85.376 289.772C85.376 295.916 83.1573 301.164 78.72 305.516C74.368 309.953 69.12 312.172 62.976 312.172H0V308.076H62.976C68.0107 308.076 72.32 306.284 75.904 302.7C79.488 299.116 81.28 294.807 81.28 289.772C81.28 284.737 79.488 280.428 75.904 276.844C72.32 273.345 68.0107 271.596 62.976 271.596H0V267.5ZM0 200.625H4.096L4.096 220.849H85.376V224.945H4.096V245.297H0L0 200.625ZM85.376 107.451V111.547H0V108.219L38.144 89.147L0 70.075V66.875H85.376V70.843H10.624L47.232 89.147L10.624 107.451H85.376ZM4.096 40.576H40.704V1.14441e-05H44.8V40.576H81.28V1.14441e-05H85.376V44.672H0L0 1.14441e-05H4.096L4.096 40.576Z" fill="black"/>
</svg>
