<?xml version="1.0" encoding="UTF-8" standalone="no"?>
<!DOCTYPE svg PUBLIC "-//W3C//DTD SVG 1.1//EN" "http://www.w3.org/Graphics/SVG/1.1/DTD/svg11.dtd">
<svg width="100%" height="100%" viewBox="0 0 1908 548" version="1.1" xmlns="http://www.w3.org/2000/svg" xmlns:xlink="http://www.w3.org/1999/xlink" xml:space="preserve" xmlns:serif="http://www.serif.com/" style="fill-rule:evenodd;clip-rule:evenodd;stroke-linejoin:round;stroke-miterlimit:2;">
    <g transform="matrix(1,0,0,1,-297,-1782)">
        <g id="button.jpg" transform="matrix(1.993752,0,0,1.993752,291.414158,1539.942982)">
            <g transform="matrix(1,0,0,1,-29.592446,-69.717797)">
                <path d="M263.532,237.59C277.451,234.059 277.412,234.036 278.456,234.66C282.125,236.852 281.771,231.607 285.518,231.679C290.409,231.771 289.803,229.526 294.5,229.49C306.837,229.395 306.196,225.948 318.532,224.821C319.895,224.696 333.257,223.476 335.482,222.456C347.167,217.099 347.698,219.68 360.264,217.062C376.717,213.633 377.004,216.674 378.308,216.049C396.136,207.504 397.24,212.648 398.67,211.797C405.66,207.636 435.345,206.137 435.466,206.123C440.979,205.482 496.581,199.017 504.518,199.41C510.37,199.7 510.134,198.501 511.475,198.369C539.153,195.638 539.974,195.088 542.375,198.721L545.436,196.368C548.586,196.021 548.402,195.97 551.515,195.698C566.545,194.383 566.442,195.256 581.502,194.553C587.718,194.264 587.749,190.399 600.406,194.784C601.556,195.183 601.451,193.374 615.521,193.072C619.018,192.997 624.752,192.388 625.552,192.303L628.494,192.28C644.567,191.712 644.37,194.442 645.649,193.927C658.284,188.829 671.009,193.279 674.532,192.877C686.673,191.488 686.686,190.771 698.493,193.528C699.973,193.873 700.013,192.042 717.489,193.661C719.439,193.841 723.225,191.014 727.453,191.751C729.044,192.029 735.239,193.109 747.507,194.055C771.088,195.583 908.209,203.631 899.015,216.14C898.357,217.035 874.4,216.045 869.394,215.18C866.921,214.753 868.147,220.03 874.481,219.315C880.893,218.59 880.023,220.921 884.74,225.139C888.151,228.19 891.576,221.872 935.514,251.478C944.155,257.301 961.652,266.003 978.118,289.898C981.39,289.553 981.181,290.392 982.712,293.34C986.426,301.87 996.702,321.871 980.349,343.375C974.046,351.664 972.567,350.026 965.31,357.329C960.65,362.019 922.517,383.187 906.484,385.378C902.924,385.864 895.534,392.041 815.439,409.244C771.454,418.692 706.034,428.9 696.484,430.39C693.143,430.911 658.939,436.249 654.444,434.706C654.166,434.61 631.734,441.284 612.49,440.357C606.428,440.065 604.731,444.567 585.501,443.307C582.291,443.097 582.37,443.931 545.536,447.78C539.9,448.369 364.265,467.266 258.537,463.066C247.216,462.617 243.987,467.588 238.521,464.454C222.597,455.321 51.365,468.296 33.238,388.551C31.215,379.649 36.055,351.445 54.952,333.961C86.005,305.228 120.197,287.923 158.593,271.721C162.417,270.107 162.696,271.366 166.4,269.321C168.885,267.95 172.804,265.787 199.532,256.649C202.255,255.718 202.564,257.015 209.25,254.03C216.205,250.924 216.223,251.435 223.505,249.284L225.045,249.037C245.615,241.055 252.053,240.73 254.501,240.607L259.494,240.813L260.552,240.877C261.656,239.242 260.987,238.681 263.532,237.59ZM553.48,431.091C555.4,430.877 570.107,429.236 577.508,428.617C610.85,425.829 610.585,424.331 613.483,424.217C639.19,423.208 638.955,422.402 664.447,418.211C669.327,418.49 695.894,413.927 698.605,414.036C703.065,414.129 703.044,414.208 703.422,414.136C734.554,408.193 734.729,409.01 737.294,408.008C746.477,404.423 746.746,406.833 747.486,406.469C756.754,401.909 761.04,404.951 773.452,401.263C793.323,395.359 793.91,398.321 795.499,397.498C808.366,390.839 820.263,394.722 823.305,392.208C830.691,386.105 844.189,388.326 851.628,384.753C868.832,376.488 870.784,381.503 874.586,378.607C882.071,372.906 933.007,364.993 963.463,334.465C977.736,320.158 972.226,290.247 912.228,254.989C824.041,203.166 784.501,208.409 762.502,207.416C708.006,204.957 708.151,206.033 653.501,204.413C625.721,203.589 625.861,205.981 623.463,205.784C599.862,203.853 452.113,215.31 446.597,217.775C423.761,219.053 360.064,230.517 352.579,231.865C290.542,243.03 291.002,244.504 230.438,262.261C190.892,273.856 191.342,274.615 153.557,290.619C81.225,321.256 56.957,356.739 55.241,360.388C21.692,431.729 159.755,440.667 216.485,445.722C253.303,449.003 253.311,446.21 256.498,446.512C280.453,448.78 280.422,446.493 282.464,446.873C302.266,450.563 432.469,441.299 446.491,440.571C448.545,439.854 448.373,439.879 448.545,439.854C449.642,439.693 449.513,440.132 450.616,439.971C452.845,439.762 452.817,439.968 478.506,437.63C489.123,436.844 488.985,436.938 499.501,435.924L502.513,435.663C509.848,435.226 513.532,435.419 514.489,435.47C533.863,432.307 533.781,432.926 553.48,431.091Z" style="fill:rgb(97,36,121);"/>
            </g>
            <g transform="matrix(1,0,0,1,-46.144154,-66.708396)">
                <path d="M838.79,271.716C837.978,272.012 834.838,273.157 832.487,280.491L832.155,281.308C805.045,356.958 812.243,368.242 816.315,374.627C817.203,376.019 819.18,385.04 815.492,384.749C811.582,384.441 796.617,390.093 793.203,374.579C791.437,366.558 792.694,358.333 788.051,365.053C787.53,365.807 786.632,366.214 785.963,366.84C783.439,369.2 789.113,374.706 780.169,375.288C779.156,380.318 772.263,388.32 763.533,390.611C715.546,403.206 724.655,338.165 761.698,313.811C782.216,300.32 790.305,320.164 790.965,321.084C799.38,332.815 816.95,231.801 835.044,247.93C845.564,257.308 843.487,260.329 838.79,271.716ZM751.114,362.376C744.494,394.185 784.965,337.67 783.526,336.458C783.364,336.322 778.861,337.544 775.579,334.424C773.425,332.376 767.629,328.765 751.114,362.376Z" style="fill:rgb(97,36,121);"/>
            </g>
            <g transform="matrix(1,0,0,1,-46.144154,-66.708396)">
                <path d="M243.518,360.902C268.861,356.284 302.681,304.645 305.728,295.575C320.821,250.629 324.186,225.987 344.38,244.623C349.191,249.063 340.232,274.491 331.717,289.622C321.452,307.862 308.526,359.455 309.284,364.53C311.725,380.874 294.01,378.577 292.586,378.233C277.335,374.543 292.551,353.044 285.655,358.786C230.363,404.823 208.072,367.063 226.304,336.379C258.921,281.488 297.765,312.608 286.485,321.464C279.633,326.844 270.757,321.987 270.417,321.9C257.126,318.502 229.22,357.919 243.518,360.902Z" style="fill:rgb(97,36,121);"/>
            </g>
            <g transform="matrix(1,0,0,1,-46.144154,-66.708396)">
                <path d="M410.537,395.029C375.71,386.426 422.101,306.55 431.539,307.166C444.461,308.01 441.941,313.492 442.766,314.178C451.387,321.341 431.587,324.453 418.811,370.546C417.845,374.033 423.561,369.255 423.887,368.983C455.917,342.212 450.752,338.019 459.817,324.736C465.091,317.007 472.7,321.038 473.283,321.711C490.621,341.74 466.208,342.706 463.986,372.332C463.78,375.087 469.748,367.739 470.151,367.242C490.522,342.162 485.378,315.559 497.542,319.302C525.923,328.037 485.719,387.01 476.539,391.575C451.835,403.86 445.565,385.9 444.698,383.417C440.69,371.938 438.001,396.865 410.537,395.029Z" style="fill:rgb(97,36,121);"/>
            </g>
            <g transform="matrix(1,0,0,1,-46.144154,-66.708396)">
                <path d="M648.966,362.5C655.966,317.951 692.127,293.821 712.65,318.353C713.868,319.809 719.425,316.665 724.493,321.507C737.261,333.702 716.942,349.141 717.894,369.487C718.311,378.424 731.616,391.013 722.506,391.588C711.953,392.254 709.639,391.558 708.572,391.237C698.666,388.259 701.581,376.176 694.248,382.213C681.187,392.968 646.778,396.173 648.966,362.5ZM671.469,371.038C673.919,370.023 686.286,364.902 692.659,345.557C707.756,299.734 652.016,367.655 671.469,371.038Z" style="fill:rgb(97,36,121);"/>
            </g>
            <g transform="matrix(1,0,0,1,-46.144154,-66.708396)">
                <path d="M349.5,380.95C330.033,379.174 323.865,375.496 324.09,352.487C324.234,337.815 353.716,288.83 376.749,304.166C380.889,306.923 391.939,297.982 400.425,318.528C406.157,332.407 385.915,369.7 366.292,377.046C358.119,380.104 358.238,379.901 349.5,380.95ZM375.771,337.645C376.224,336.595 380.563,326.55 379.058,323.725C373.84,313.926 367.129,322.02 357.823,329.87C349.037,337.282 340.22,358.483 345.647,362.248C355.761,369.264 374.107,340.274 375.771,337.645Z" style="fill:rgb(97,36,121);"/>
            </g>
            <g transform="matrix(1,0,0,1,-46.144154,-66.708396)">
                <path d="M571.807,391.853C571.246,392.021 571.172,391.401 564.544,392.79C545.226,396.84 561.095,355.43 562.253,352.408C562.616,351.46 568.284,336.669 563.745,339.801C563.356,340.069 565.644,341.402 560.76,344.894C551.842,351.271 531.031,374.052 528.78,382.569C527.13,388.813 527.999,391.087 521.501,390.622C520.678,390.563 519.2,392.581 515.57,392.036C494.683,388.898 509.435,370.194 522.549,339.524C529.722,322.748 532.356,309.904 541.621,316.331C542.446,316.903 546.225,315.731 546.839,320.442C547.542,325.836 548.476,328.082 552.841,324.957C575.72,308.58 580.099,313.042 587.259,321.663C591.916,327.272 588.377,348.881 581.367,356.446L581.999,358.524C577.257,373.849 574.532,373.354 575.327,389.476C574.47,391.836 574.413,392.214 571.807,391.853Z" style="fill:rgb(97,36,121);"/>
            </g>
            <g transform="matrix(1,0,0,1,-46.144154,-66.708396)">
                <path d="M605.55,385.035C602.639,384.183 602.857,384.291 602.639,384.183C599.649,382.694 593.919,379.841 612.889,343.696C657.784,258.157 656.564,254.851 661.482,255.699C687.759,260.227 666.896,280.536 652.859,310.674C623.843,372.973 621,372.301 620.959,377.537C620.904,384.668 619.591,387.318 605.55,385.035Z" style="fill:rgb(97,36,121);"/>
            </g>
        </g>
    </g>
</svg>
